
        <svg xmlns="http://www.w3.org/2000/svg" xmlns:xlink="http://www.w3.org/1999/xlink" version="1.1" width="3250" 
        height="583.5996856314625" viewBox="0 0 3250 583.5996856314625">
			
			<g transform="scale(12.5) translate(10, 10)">
				<defs id="SvgjsDefs1503"></defs><g id="SvgjsG1504" featureKey="nameFeature-0" transform="matrix(0.8919777667935997,0,0,0.8919777667935997,-1.0703727246929189,-9.918793515322362)" fill="#f33535"><path d="M29.24 12.04 l0 1.04 c-0.88 0 -1.68 0.28 -1.72 1 l0 26.12 l-2.88 0 l-17.76 -20.04 l0 17.96 c0.04 0.72 0.84 1 1.72 1 l0 1.08 l-7.4 0 l0 -1.08 c0.88 0 1.68 -0.28 1.72 -1 l0 -24.04 c-0.04 -0.72 -0.84 -1 -1.72 -1 l0 -1.04 l4.08 0 l18.6 20.56 l0 -18.52 c-0.04 -0.72 -0.84 -1 -1.72 -1 l0 -1.04 l7.08 0 z M50.385000000000005 41.04 c-8.16 0 -13.96 -6.8 -13.96 -15.16 c0 -7.96 5.8 -14.76 13.96 -14.76 c8.12 0 13.92 6.8 13.92 14.76 c0 8.36 -5.8 15.16 -13.92 15.16 z M50.545 38.84 c5.44 0 8.6 -6.16 8.6 -12.96 c0 -6.36 -3.16 -12.52 -8.6 -12.52 s-8.6 6.16 -8.6 12.52 c0 6.8 3.16 12.96 8.6 12.96 z M89.17 34.68 l1.36 0 l0 5.52 l-19.24 0 l0 -1.04 c0.84 0 1.68 -0.32 1.72 -1.12 l0 -24.28 c0.04 -0.8 -0.8 -1.12 -1.72 -1.12 l0 -1.04 l7.72 0 l0 1.04 c-0.88 0 -1.64 0.28 -1.72 0.96 l0.04 23.8 l8.92 0 c2.04 0 2.88 -1.92 2.92 -2.72 z M77.29 13.64 l0 0.12 l0 -0.12 z M114.795 34.68 l1.36 0 l0 5.52 l-19.24 0 l0 -1.04 c0.84 0 1.68 -0.32 1.72 -1.12 l0 -24.28 c0.04 -0.8 -0.8 -1.12 -1.72 -1.12 l0 -1.04 l7.72 0 l0 1.04 c-0.88 0 -1.64 0.28 -1.72 0.96 l0.04 23.8 l8.92 0 c2.04 0 2.88 -1.92 2.92 -2.72 z M102.915 13.64 l0 0.12 l0 -0.12 z M148.86 11.559999999999999 l0 1.4 c-0.44 0 -1.56 -0.12 -2.36 0.68 l-8.92 13.4 l0 11 c-0.04 0.8 0.8 1.12 1.72 1.12 l0 1.04 l-8.24 0 l0 -1.04 c0.84 0 1.6 -0.28 1.72 -0.92 l0.16 -11.2 l-9.52 -13.28 c-0.04 -0.04 -0.04 -0.12 -0.08 -0.16 l-0.08 -0.12 c-0.52 -0.64 -1.28 -0.6 -1.72 -0.6 l0 -1.44 l8.32 0 l0 1.44 c-0.48 0 -1.24 0 -1 0.8 l6.64 9.6 l6.56 -9.52 c0.52 -0.84 -0.64 -0.8 -1.12 -0.8 l0 -1.44 z M132.78 38.16 l0 -0.12 l0 0.12 z M168.645 25.92 l0 3.52 l-13.6 0 l0 -3.52 l13.6 0 z M195.47 11.64 l0 5.48 l-1.36 0 c-0.04 -0.76 -0.88 -2.68 -2.92 -2.72 l-9.52 0 l0 10.16 l8.48 0 c1.28 -0.12 1.84 -0.52 1.88 -1.48 l0.96 0 l0 5.32 l-0.96 0 c-0.04 -0.96 -0.6 -1.36 -1.88 -1.48 l-8.52 0 l0 11.12 c-0.04 0.8 0.8 1.12 1.72 1.12 l0 1.04 l-7.72 0 l0 -1.04 c0.92 0 1.76 -0.32 1.72 -1.12 l0 -24.24 c-0.04 -0.8 -0.88 -1.12 -1.72 -1.12 l0 -1.04 l19.84 0 z M220.33499999999998 34.68 l1.36 0 l0 5.52 l-19.24 0 l0 -1.04 c0.84 0 1.68 -0.32 1.72 -1.12 l0 -24.28 c0.04 -0.8 -0.8 -1.12 -1.72 -1.12 l0 -1.04 l7.72 0 l0 1.04 c-0.88 0 -1.64 0.28 -1.72 0.96 l0.04 23.8 l8.92 0 c2.04 0 2.88 -1.92 2.92 -2.72 z M208.45499999999998 13.64 l0 0.12 l0 -0.12 z M235.76000000000002 12.68 c-0.88 0 -1.72 0.32 -1.72 1.12 l0 24.24 c0 0.8 0.84 1.12 1.72 1.12 l0 1.04 l-7.88 0 l0 -1.04 c0.88 0 1.72 -0.32 1.72 -1.12 l0 -24.24 c0 -0.8 -0.84 -1.12 -1.72 -1.12 l0 -1.04 l7.88 0 l0 1.04 z M268.505 38.12 c0.6 0.68 1.32 0.64 1.76 0.64 l0 1.44 l-8.48 0 l0 -1.44 c0.44 0 1.32 0 1.04 -0.72 l-6.6 -9.68 l-6.08 9.76 c-0.32 0.68 0.64 0.64 1.08 0.64 l0 1.44 l-7.68 0 l0 -1.44 c0.48 0 1.56 0.12 2.32 -0.88 l-0.08 0.16 l8.32 -12.4 l-8.24 -12.32 c-0.56 -0.48 -1.36 -0.44 -1.76 -0.44 l0 -1.44 l8.24 0 l0 1.44 c-0.48 0 -1.2 0 -0.92 0.84 l-0.04 -0.04 l5.52 8.32 l6 -8.44 c0.2 -0.64 -0.8 -0.6 -1.24 -0.6 l0 -1.44 l7.68 0.04 l0 1.4 c-0.48 0 -1.48 -0.12 -2.24 0.88 l0.12 -0.28 l-7.96 11.4 z"></path></g>
			</g>
		</svg>
	